# xmcd
#
# Track frame offsets:
#	150
#	13600
#	26150
#	38790
#	48032
#	68635
#	79707
#	95405
#	109165
#	123230
#
# Disc length: 1835 seconds
#
# Revision: 1
# Processed by: cddbd v1.4PL0 Copyright (c) Steve Scherf et al.
# Submitted via: audiograbber 1.80
#
DISCID=7307290a
DTITLE=Various Artist - Cowboy Super Hits
DYEAR=1900
DGENRE=
TTITLE0=Roy Rogers, Sons of the Pioneers - Cowboy Night Herd Song
TTITLE1=Gene Autry - Back in the Saddle Again
TTITLE2=Marty Robbins - Streets of Laredo
TTITLE3=Frankie Laine - Rawhide
TTITLE4=The Charlie Daniels Band - Damn Good Cowboy
TTITLE5=Willie Nelson, Leon Russell - Don't Fence Me In
TTITLE6=Gibson/Miller Band - Mammas Don't Let Your Babies Grow Up To Be Cowboys
TTITLE7=Johnny Cash, Waylon Jennings - Even Cowgirls Get the Blues
TTITLE8=Willie Nelson - My Heros Have Always Been Cowboys
TTITLE9=Waylon Jennings, Willie Nelson, Johnny Cash, Kris Kristofferson - The L
TTITLE9=ast Cowboy Song
EXTD=
EXTT0=
EXTT1=
EXTT2=
EXTT3=
EXTT4=
EXTT5=
EXTT6=
EXTT7=
EXTT8=
EXTT9=
PLAYORDER=
